<mxfile host="app.diagrams.net" modified="2023-10-15T05:57:30.482Z" agent="Mozilla/5.0 (Windows NT 10.0; Win64; x64; rv:109.0) Gecko/20100101 Firefox/118.0" etag="rz97VccauwSZv7SjDa0C" version="21.6.6" type="device">
  <diagram name="Page-1" id="QhnNcYEIZQg273aLBgYO">
    <mxGraphModel dx="1195" dy="645" grid="1" gridSize="10" guides="1" tooltips="1" connect="1" arrows="1" fold="1" page="1" pageScale="1" pageWidth="850" pageHeight="1100" math="0" shadow="0">
      <root>
        <mxCell id="0" />
        <mxCell id="1" parent="0" />
        <mxCell id="Y1OOED4w3m3vQqkzXpb9-29" value="" style="edgeStyle=orthogonalEdgeStyle;rounded=0;orthogonalLoop=1;jettySize=auto;html=1;" edge="1" parent="1" source="Y1OOED4w3m3vQqkzXpb9-3" target="Y1OOED4w3m3vQqkzXpb9-28">
          <mxGeometry relative="1" as="geometry" />
        </mxCell>
        <mxCell id="Y1OOED4w3m3vQqkzXpb9-3" value="Start of Soil Sensor" style="strokeWidth=2;html=1;shape=mxgraph.flowchart.terminator;whiteSpace=wrap;" vertex="1" parent="1">
          <mxGeometry x="230" y="40" width="100" height="60" as="geometry" />
        </mxCell>
        <mxCell id="Y1OOED4w3m3vQqkzXpb9-9" value="" style="edgeStyle=orthogonalEdgeStyle;rounded=0;orthogonalLoop=1;jettySize=auto;html=1;" edge="1" parent="1" source="Y1OOED4w3m3vQqkzXpb9-4" target="Y1OOED4w3m3vQqkzXpb9-8">
          <mxGeometry relative="1" as="geometry" />
        </mxCell>
        <mxCell id="Y1OOED4w3m3vQqkzXpb9-4" value="Get the two sensor" style="whiteSpace=wrap;html=1;strokeWidth=2;" vertex="1" parent="1">
          <mxGeometry x="220" y="210" width="120" height="60" as="geometry" />
        </mxCell>
        <mxCell id="Y1OOED4w3m3vQqkzXpb9-11" value="" style="edgeStyle=orthogonalEdgeStyle;rounded=0;orthogonalLoop=1;jettySize=auto;html=1;" edge="1" parent="1" source="Y1OOED4w3m3vQqkzXpb9-8" target="Y1OOED4w3m3vQqkzXpb9-10">
          <mxGeometry relative="1" as="geometry" />
        </mxCell>
        <mxCell id="Y1OOED4w3m3vQqkzXpb9-8" value="Average the two sensor" style="shape=parallelogram;perimeter=parallelogramPerimeter;whiteSpace=wrap;html=1;fixedSize=1;strokeWidth=2;" vertex="1" parent="1">
          <mxGeometry x="220" y="290" width="120" height="60" as="geometry" />
        </mxCell>
        <mxCell id="Y1OOED4w3m3vQqkzXpb9-15" value="" style="edgeStyle=orthogonalEdgeStyle;rounded=0;orthogonalLoop=1;jettySize=auto;html=1;" edge="1" parent="1" source="Y1OOED4w3m3vQqkzXpb9-10" target="Y1OOED4w3m3vQqkzXpb9-14">
          <mxGeometry relative="1" as="geometry" />
        </mxCell>
        <mxCell id="Y1OOED4w3m3vQqkzXpb9-10" value="&lt;div&gt;Map the moisture level &lt;br&gt;&lt;/div&gt;" style="shape=parallelogram;perimeter=parallelogramPerimeter;whiteSpace=wrap;html=1;fixedSize=1;strokeWidth=2;" vertex="1" parent="1">
          <mxGeometry x="220" y="380" width="120" height="60" as="geometry" />
        </mxCell>
        <mxCell id="Y1OOED4w3m3vQqkzXpb9-19" value="" style="edgeStyle=orthogonalEdgeStyle;rounded=0;orthogonalLoop=1;jettySize=auto;html=1;" edge="1" parent="1" source="Y1OOED4w3m3vQqkzXpb9-14" target="Y1OOED4w3m3vQqkzXpb9-18">
          <mxGeometry relative="1" as="geometry" />
        </mxCell>
        <mxCell id="Y1OOED4w3m3vQqkzXpb9-21" value="" style="edgeStyle=orthogonalEdgeStyle;rounded=0;orthogonalLoop=1;jettySize=auto;html=1;" edge="1" parent="1" source="Y1OOED4w3m3vQqkzXpb9-14" target="Y1OOED4w3m3vQqkzXpb9-20">
          <mxGeometry relative="1" as="geometry" />
        </mxCell>
        <mxCell id="Y1OOED4w3m3vQqkzXpb9-14" value="Return the moisture level" style="shape=parallelogram;perimeter=parallelogramPerimeter;whiteSpace=wrap;html=1;fixedSize=1;strokeWidth=2;" vertex="1" parent="1">
          <mxGeometry x="220" y="460" width="120" height="60" as="geometry" />
        </mxCell>
        <mxCell id="Y1OOED4w3m3vQqkzXpb9-18" value="End" style="strokeWidth=2;html=1;shape=mxgraph.flowchart.terminator;whiteSpace=wrap;" vertex="1" parent="1">
          <mxGeometry x="230" y="540" width="100" height="60" as="geometry" />
        </mxCell>
        <mxCell id="Y1OOED4w3m3vQqkzXpb9-20" value="" style="shape=waypoint;sketch=0;size=6;pointerEvents=1;points=[];fillColor=default;resizable=0;rotatable=0;perimeter=centerPerimeter;snapToPoint=1;strokeWidth=2;" vertex="1" parent="1">
          <mxGeometry x="360" y="480" width="20" height="20" as="geometry" />
        </mxCell>
        <mxCell id="Y1OOED4w3m3vQqkzXpb9-24" value="" style="edgeStyle=orthogonalEdgeStyle;rounded=0;orthogonalLoop=1;jettySize=auto;html=1;" edge="1" parent="1" source="Y1OOED4w3m3vQqkzXpb9-22" target="Y1OOED4w3m3vQqkzXpb9-23">
          <mxGeometry relative="1" as="geometry" />
        </mxCell>
        <mxCell id="Y1OOED4w3m3vQqkzXpb9-22" value="" style="shape=waypoint;sketch=0;size=6;pointerEvents=1;points=[];fillColor=none;resizable=0;rotatable=0;perimeter=centerPerimeter;snapToPoint=1;" vertex="1" parent="1">
          <mxGeometry x="410" y="60" width="20" height="20" as="geometry" />
        </mxCell>
        <mxCell id="Y1OOED4w3m3vQqkzXpb9-34" value="" style="edgeStyle=orthogonalEdgeStyle;rounded=0;orthogonalLoop=1;jettySize=auto;html=1;" edge="1" parent="1" source="Y1OOED4w3m3vQqkzXpb9-23" target="Y1OOED4w3m3vQqkzXpb9-33">
          <mxGeometry relative="1" as="geometry" />
        </mxCell>
        <mxCell id="Y1OOED4w3m3vQqkzXpb9-23" value="Start of Water control" style="strokeWidth=2;html=1;shape=mxgraph.flowchart.terminator;whiteSpace=wrap;" vertex="1" parent="1">
          <mxGeometry x="450" y="40" width="100" height="60" as="geometry" />
        </mxCell>
        <mxCell id="Y1OOED4w3m3vQqkzXpb9-30" value="" style="edgeStyle=orthogonalEdgeStyle;rounded=0;orthogonalLoop=1;jettySize=auto;html=1;entryX=0.497;entryY=-0.011;entryDx=0;entryDy=0;entryPerimeter=0;" edge="1" parent="1" target="Y1OOED4w3m3vQqkzXpb9-4">
          <mxGeometry relative="1" as="geometry">
            <mxPoint x="279.76" y="95" as="sourcePoint" />
            <mxPoint x="279.76" y="205" as="targetPoint" />
          </mxGeometry>
        </mxCell>
        <mxCell id="Y1OOED4w3m3vQqkzXpb9-28" value="Declare two sensor" style="whiteSpace=wrap;html=1;" vertex="1" parent="1">
          <mxGeometry x="220" y="120" width="120" height="60" as="geometry" />
        </mxCell>
        <mxCell id="Y1OOED4w3m3vQqkzXpb9-36" value="" style="edgeStyle=orthogonalEdgeStyle;rounded=0;orthogonalLoop=1;jettySize=auto;html=1;" edge="1" parent="1" source="Y1OOED4w3m3vQqkzXpb9-33" target="Y1OOED4w3m3vQqkzXpb9-35">
          <mxGeometry relative="1" as="geometry" />
        </mxCell>
        <mxCell id="Y1OOED4w3m3vQqkzXpb9-33" value="Declare moisture level, threshold of dry and wet" style="whiteSpace=wrap;html=1;strokeWidth=2;" vertex="1" parent="1">
          <mxGeometry x="440" y="120" width="120" height="60" as="geometry" />
        </mxCell>
        <mxCell id="Y1OOED4w3m3vQqkzXpb9-38" value="" style="edgeStyle=orthogonalEdgeStyle;rounded=0;orthogonalLoop=1;jettySize=auto;html=1;" edge="1" parent="1" source="Y1OOED4w3m3vQqkzXpb9-35" target="Y1OOED4w3m3vQqkzXpb9-37">
          <mxGeometry relative="1" as="geometry" />
        </mxCell>
        <mxCell id="Y1OOED4w3m3vQqkzXpb9-35" value="Get the declared variables" style="whiteSpace=wrap;html=1;strokeWidth=2;" vertex="1" parent="1">
          <mxGeometry x="440" y="210" width="120" height="60" as="geometry" />
        </mxCell>
        <mxCell id="Y1OOED4w3m3vQqkzXpb9-40" value="" style="edgeStyle=orthogonalEdgeStyle;rounded=0;orthogonalLoop=1;jettySize=auto;html=1;" edge="1" parent="1" source="Y1OOED4w3m3vQqkzXpb9-37" target="Y1OOED4w3m3vQqkzXpb9-39">
          <mxGeometry relative="1" as="geometry" />
        </mxCell>
        <mxCell id="Y1OOED4w3m3vQqkzXpb9-41" value="True" style="edgeLabel;html=1;align=center;verticalAlign=middle;resizable=0;points=[];" vertex="1" connectable="0" parent="Y1OOED4w3m3vQqkzXpb9-40">
          <mxGeometry x="0.0429" y="4" relative="1" as="geometry">
            <mxPoint as="offset" />
          </mxGeometry>
        </mxCell>
        <mxCell id="Y1OOED4w3m3vQqkzXpb9-43" value="" style="edgeStyle=orthogonalEdgeStyle;rounded=0;orthogonalLoop=1;jettySize=auto;html=1;" edge="1" parent="1" source="Y1OOED4w3m3vQqkzXpb9-37" target="Y1OOED4w3m3vQqkzXpb9-42">
          <mxGeometry relative="1" as="geometry" />
        </mxCell>
        <mxCell id="Y1OOED4w3m3vQqkzXpb9-44" value="False" style="edgeLabel;html=1;align=center;verticalAlign=middle;resizable=0;points=[];" vertex="1" connectable="0" parent="Y1OOED4w3m3vQqkzXpb9-43">
          <mxGeometry x="-0.0889" y="1" relative="1" as="geometry">
            <mxPoint as="offset" />
          </mxGeometry>
        </mxCell>
        <mxCell id="Y1OOED4w3m3vQqkzXpb9-37" value="If moisture level is dry" style="rhombus;whiteSpace=wrap;html=1;strokeWidth=2;" vertex="1" parent="1">
          <mxGeometry x="460" y="320" width="80" height="80" as="geometry" />
        </mxCell>
        <mxCell id="Y1OOED4w3m3vQqkzXpb9-49" style="edgeStyle=orthogonalEdgeStyle;rounded=0;orthogonalLoop=1;jettySize=auto;html=1;exitX=0.5;exitY=0;exitDx=0;exitDy=0;" edge="1" parent="1" source="Y1OOED4w3m3vQqkzXpb9-39">
          <mxGeometry relative="1" as="geometry">
            <mxPoint x="500" y="300" as="targetPoint" />
            <Array as="points">
              <mxPoint x="660" y="301" />
              <mxPoint x="601" y="301" />
              <mxPoint x="570" y="300" />
            </Array>
          </mxGeometry>
        </mxCell>
        <mxCell id="Y1OOED4w3m3vQqkzXpb9-39" value="Open the valve" style="whiteSpace=wrap;html=1;strokeWidth=2;" vertex="1" parent="1">
          <mxGeometry x="600" y="330" width="120" height="60" as="geometry" />
        </mxCell>
        <mxCell id="Y1OOED4w3m3vQqkzXpb9-51" value="" style="edgeStyle=orthogonalEdgeStyle;rounded=0;orthogonalLoop=1;jettySize=auto;html=1;" edge="1" parent="1" source="Y1OOED4w3m3vQqkzXpb9-42" target="Y1OOED4w3m3vQqkzXpb9-50">
          <mxGeometry relative="1" as="geometry" />
        </mxCell>
        <mxCell id="Y1OOED4w3m3vQqkzXpb9-42" value="Close the valve" style="whiteSpace=wrap;html=1;strokeWidth=2;" vertex="1" parent="1">
          <mxGeometry x="440" y="460" width="120" height="60" as="geometry" />
        </mxCell>
        <mxCell id="Y1OOED4w3m3vQqkzXpb9-50" value="End" style="strokeWidth=2;html=1;shape=mxgraph.flowchart.terminator;whiteSpace=wrap;" vertex="1" parent="1">
          <mxGeometry x="450" y="550" width="100" height="60" as="geometry" />
        </mxCell>
      </root>
    </mxGraphModel>
  </diagram>
</mxfile>
